<?xml version="1.0" encoding="utf-8"?>
<!-- Generator: Adobe Illustrator 24.3.0, SVG Export Plug-In . SVG Version: 6.00 Build 0)  -->
<svg version="1.1" id="Layer_1" xmlns="http://www.w3.org/2000/svg" xmlns:xlink="http://www.w3.org/1999/xlink" x="0px" y="0px"
	 viewBox="0 0 325 325" enable-background="new 0 0 325 325" xml:space="preserve">
<g id="kedi_1_">
	<path fill="#83A0AD" d="M109.659,209.933c0,0,27.414-0.404,15.097-18.649c-3.168-4.693-13.766-10.015-22.647,0
		c0,0-15.81,14.446-11.545,55.063c0,0,7.554,15.947,42.628,4.44l-2.22,8.437c0,0-41.656,1.684-43.073-4.885
		c-3.91-18.118-9.869-53.252,7.993-73.712c6.218-7.121,28.818-9.51,37.3,6.217c0,0,13.115,26.769-8.881,29.308
		C120.359,216.606,112.323,215.262,109.659,209.933z"/>
	<path fill="#83A0AD" d="M63.033,104.694c0,0,4.884,67.496,95.47,67.051l-34.215,95.825l51.81,1.589l-0.278-97.415
		c0,0,71.049,5.329,85.26-65.276l-14.655,5.054c0,0-4.885-33.473-53.287-57.896l5.328,32.416c0,0-32.859-10.214-67.94,0
		l-3.552-27.975c0,0-32.415,9.769-45.293,51.51L63.033,104.694z"/>
	<path opacity="0.8" fill="#F7F6F6" d="M163.324,117.57c0,0,67.559-4.455,65.339,14.646c0,0-5.772,29.315-53.731,32.868l0.888,3.997
		l-5.772-3.553l-3.551,9.325l-0.445-9.325l-2.728,3.997v-4.44c0,0-31.909-2.221-47.893-28.42c0,0-9.07-13.778,22.013-19.544
		L163.324,117.57z"/>
	<path opacity="0.5" fill="#4C7C88" d="M125.948,58.422l1.027-0.354l3.552,27.975c0,0,30.52-10.374,67.94,0l0.445,3.415
		c0,0-37.745-9.463-69.271,0L125.948,58.422z"/>
	<g>
		<path opacity="0.7" fill="#558190" d="M134.713,84.917c0,0,5.562-1.249,9.287-1.983l2.704,19.094L134.713,84.917z"/>
		<path opacity="0.7" fill="#558190" d="M146.514,82.66c0,0,7.856-0.905,12.79-1.081l-0.801,22.67L146.514,82.66z"/>
		<polygon opacity="0.7" fill="#558190" points="164.135,81.578 171.585,81.578 168.939,99.364 		"/>
		<polygon opacity="0.7" fill="#558190" points="182.482,82.934 189.882,84.007 182.482,98.476 		"/>
	</g>
	<g>
		<path fill="#698F9C" d="M193.585,53.183c0.817,2.791,1.438,5.61,1.99,8.438c0.565,2.827,1.014,5.67,1.441,8.517
			c0.39,2.852,0.754,5.707,1.004,8.579c0.262,2.87,0.453,5.75,0.448,8.658c-0.819-2.79-1.441-5.609-1.993-8.438
			c-0.564-2.827-1.013-5.67-1.438-8.517c-0.387-2.852-0.752-5.708-1.001-8.579C193.774,58.971,193.582,56.091,193.585,53.183z"/>
	</g>
	<path opacity="0.5" fill="#4C7C88" d="M193.585,54.071c0,0,44.054,19.692,52.842,57.453l14.209-5.054l-15.097,7.993
		c0,0-8.437-36.857-51.954-57.283V54.071z"/>
	<g>
		<path fill="#698F9C" d="M126.976,58.068c-2.776,1.035-5.408,2.368-7.913,3.896l-1.876,1.145c-0.613,0.4-1.208,0.831-1.812,1.244
			c-1.223,0.804-2.375,1.706-3.527,2.607c-4.586,3.627-8.716,7.788-12.447,12.279l-2.706,3.448c-0.468,0.562-0.88,1.166-1.281,1.778
			l-1.231,1.816c-0.809,1.219-1.719,2.375-2.417,3.666c-0.736,1.267-1.488,2.525-2.248,3.782c-0.801,1.235-1.405,2.576-2.093,3.875
			l-2.04,3.918c-1.278,2.655-2.401,5.383-3.701,8.056c0.435-1.413,0.888-2.824,1.366-4.229c0.481-1.403,0.911-2.83,1.437-4.219
			l1.759-4.099c0.597-1.363,1.16-2.746,1.898-4.042c1.393-2.634,2.773-5.286,4.461-7.755l1.227-1.876
			c0.404-0.629,0.819-1.25,1.291-1.832l2.735-3.558c3.852-4.576,8.168-8.797,13.06-12.255
			C115.79,62.273,121.181,59.414,126.976,58.068z"/>
	</g>
	<path fill="#DFDFDF" d="M119.427,63.396c0,0-13.323,7.993-19.539,15.541"/>
	<path fill="#4D4C4C" d="M199.357,64.728c0,0,28.419,10.214,33.748,35.081l-10.657-5.329c0,0,0.444-9.325-6.217-2.664
		c0,0,3.554-12.434-2.219-9.547c0,0,2.664,0.39,0,7.189c0,0-1.777-5.635-4.886-7.189l0.444,7.189l-7.992-2.527L199.357,64.728z"/>
	<path fill="#4D4C4C" d="M92.783,103.361c0,0,3.997-27.087,31.972-38.633l1.777,22.203l-9.771,3.793l0.889-6.679l-4.885,7.327
		l-3.107-7.327v7.327l-4.885-1.914v6.799L92.783,103.361z"/>
	<g>
		<polygon opacity="0.7" fill="#558190" points="63.033,104.694 81.683,109.578 115.431,111.523 65.249,115.36 		"/>
		<polygon opacity="0.7" fill="#558190" points="68.423,123.984 73.658,133.819 112.766,120.679 		"/>
		<polygon opacity="0.7" fill="#558190" points="78.03,139.988 85.118,147.732 102.553,134.889 		"/>
		<polygon opacity="0.7" fill="#558190" points="92.783,154.055 100.728,159.074 110.99,141.106 		"/>
		<polygon opacity="0.7" fill="#558190" points="212.234,155.759 217.134,163.926 223.779,160.604 		"/>
		<polygon opacity="0.7" fill="#558190" points="223.779,142.881 238.539,149.743 231.917,155.392 		"/>
		<polygon opacity="0.7" fill="#558190" points="234.438,127.783 251.873,132.335 248.121,138.441 		"/>
		<polygon opacity="0.7" fill="#558190" points="229.109,118.459 258.427,116.858 256.118,123.344 		"/>
	</g>
	<g>
		<g>
			<path fill="#262626" d="M210.014,117.57c4.642-6.372,9.77-12.393,15.208-18.116c2.707-2.876,5.532-5.638,8.402-8.356
				c2.886-2.701,5.878-5.29,8.927-7.812c6.148-4.975,12.637-9.594,19.651-13.316c6.956-3.773,14.563-6.589,22.413-7.461
				c-3.855,0.831-7.599,2.019-11.193,3.562c-3.615,1.486-7.091,3.287-10.46,5.262c-3.361,1.987-6.665,4.078-9.827,6.379
				c-3.182,2.27-6.309,4.622-9.321,7.124c-6.08,4.932-11.862,10.237-17.485,15.71c-2.803,2.746-5.571,5.533-8.285,8.375
				C215.297,111.734,212.648,114.639,210.014,117.57z"/>
		</g>
		<g>
			<path fill="#262626" d="M212.234,117.57c7.282-4.409,14.842-8.356,22.551-11.981c7.705-3.637,15.586-6.902,23.582-9.871
				c8.033-2.868,16.195-5.391,24.493-7.389c8.321-1.901,16.786-3.216,25.29-3.619c-8.436,1.179-16.713,2.994-24.907,5.132
				c-8.157,2.291-16.223,4.873-24.192,7.754c-7.958,2.912-15.824,6.079-23.627,9.41c-3.897,1.676-7.784,3.381-11.643,5.153
				C219.892,113.877,216.07,115.729,212.234,117.57z"/>
		</g>
		<g>
			<path fill="#262626" d="M212.234,117.127c7.958-1.407,15.966-2.517,24.007-3.347c8.04-0.844,16.113-1.429,24.221-1.585
				c4.054-0.041,8.118-0.004,12.189,0.345c2.035,0.191,4.071,0.441,6.102,0.897c1.014,0.234,2.03,0.507,3.03,0.919
				c0.982,0.431,2.022,0.943,2.801,1.98l0.26,0.417l0.166,0.374l0.321,0.744c0.156,0.505,0.352,1.003,0.472,1.513
				c0.264,1.015,0.464,2.038,0.571,3.068c0.231,2.057,0.235,4.128,0,6.172c-0.257,2.039-0.737,4.062-1.58,5.938
				c-0.829,1.871-2.069,3.6-3.732,4.769c1.525-1.34,2.557-3.113,3.241-4.969c0.678-1.869,0.994-3.85,1.095-5.825
				c0.11-1.975,0.005-3.963-0.322-5.902c-0.159-0.969-0.38-1.925-0.66-2.852c-0.129-0.469-0.324-0.905-0.481-1.358l-0.305-0.635
				l-0.151-0.313l-0.153-0.217c-0.458-0.579-1.298-1.02-2.164-1.345c-0.877-0.33-1.821-0.569-2.776-0.764
				c-1.918-0.384-3.901-0.584-5.886-0.723c-3.976-0.284-7.994-0.307-12.007-0.234c-8.033,0.115-16.077,0.612-24.118,1.136
				C228.334,115.895,220.288,116.487,212.234,117.127z"/>
		</g>
	</g>
	<g>
		<g>
			<path fill="#262626" d="M122.092,122.011c-8.793-0.213-17.577-0.444-26.355-0.719c-8.78-0.242-17.556-0.505-26.331-0.685
				c-8.775-0.189-17.548-0.272-26.319-0.232l-6.576,0.116c-2.192,0.04-4.377,0.174-6.57,0.249c-1.098,0.019-2.191,0.09-3.281,0.186
				l-3.279,0.253c-1.099,0.053-2.179,0.228-3.263,0.389l-3.268,0.443c2.141-0.46,4.278-1.075,6.462-1.358l3.271-0.478
				c1.091-0.171,2.184-0.318,3.281-0.412c2.193-0.195,4.387-0.43,6.585-0.581l6.597-0.367c8.8-0.359,17.605-0.361,26.402-0.206
				c8.795,0.22,17.585,0.569,26.361,1.13C104.586,120.277,113.351,121.027,122.092,122.011z"/>
		</g>
		<g>
			<path fill="#262626" d="M40.386,100.252c6.887,1.368,13.739,2.885,20.554,4.543c6.822,1.632,13.61,3.397,20.384,5.216
				c6.764,1.857,13.516,3.765,20.215,5.862c3.352,1.04,6.69,2.132,10.007,3.29c1.653,0.596,3.303,1.203,4.939,1.848
				c0.818,0.321,1.633,0.654,2.438,1.012c0.783,0.39,1.631,0.715,2.28,1.32c-0.705-0.521-1.575-0.743-2.391-1.039
				c-0.828-0.281-1.661-0.545-2.5-0.793c-1.677-0.501-3.366-0.963-5.058-1.413l-10.147-2.726L80.8,111.94
				c-6.758-1.856-13.519-3.702-20.257-5.642C53.798,104.387,47.081,102.369,40.386,100.252z"/>
		</g>
		<g>
			<path fill="#262626" d="M27.064,91.372c1.008-0.338,2.055-0.54,3.101-0.754c1.055-0.126,2.109-0.33,3.173-0.385
				c2.126-0.21,4.259-0.211,6.398-0.238c4.261,0.179,8.534,0.532,12.731,1.317l3.156,0.55c1.054,0.177,2.08,0.472,3.122,0.703
				l3.115,0.738l1.556,0.375l1.535,0.447l6.133,1.825l6.032,2.121c1.001,0.365,2.01,0.712,3.003,1.096l2.952,1.221l5.9,2.448
				c1.938,0.879,3.85,1.816,5.775,2.721c1.917,0.923,3.858,1.796,5.736,2.794c3.746,2.015,7.51,3.993,11.194,6.107
				c3.622,2.227,7.275,4.392,10.857,6.666c-3.811-1.883-7.552-3.874-11.324-5.804c-1.873-0.988-3.809-1.854-5.709-2.786
				l-5.705-2.782c-3.851-1.749-7.71-3.477-11.577-5.178l-5.874-2.372l-2.935-1.189c-0.986-0.374-1.988-0.706-2.98-1.065
				l-5.955-2.144l-6.043-1.865l-1.509-0.476l-1.527-0.404l-3.059-0.796c-2.032-0.569-4.093-0.993-6.156-1.424
				c-1.033-0.203-2.057-0.472-3.098-0.622l-3.12-0.493l-1.561-0.254l-1.57-0.169l-3.144-0.333c-2.101-0.121-4.209-0.269-6.32-0.209
				C31.262,90.818,29.138,90.915,27.064,91.372z"/>
		</g>
	</g>
	<path fill="#F18D81" d="M153.619,117.57c0,0,17.762-4.44,31.527,0l-13.765,11.545L153.619,117.57z"/>
	<g>
		<path fill="#262626" d="M137.633,103.361c1.624,1.883,3.232,3.653,5.022,5.021c1.775,1.377,3.714,2.253,5.625,2.144
			c1.921-0.077,3.87-1.097,5.702-2.445c1.836-1.371,3.543-3.056,5.41-4.721c-0.823,2.361-2.094,4.547-3.825,6.468
			c-0.91,0.921-1.883,1.828-3.102,2.486c-1.196,0.669-2.587,1.141-4.053,1.208c-1.464,0.067-2.937-0.29-4.184-0.932
			c-1.255-0.64-2.308-1.521-3.183-2.496C139.315,108.122,138.15,105.816,137.633,103.361z"/>
	</g>
	<g>
		<path fill="#262626" d="M167.829,102.028c1.319,2.027,2.565,3.997,4.007,5.657c0.717,0.817,1.475,1.571,2.276,2.055
			c0.802,0.489,1.576,0.71,2.354,0.637c0.782-0.053,1.64-0.453,2.466-1.036c0.833-0.572,1.643-1.301,2.421-2.102
			c1.577-1.593,3.026-3.428,4.681-5.21c-0.546,2.368-1.487,4.608-2.846,6.692c-0.678,1.041-1.508,2.023-2.535,2.886
			c-1.013,0.851-2.325,1.61-3.906,1.756c-1.579,0.153-3.159-0.438-4.268-1.3c-1.137-0.861-1.925-1.932-2.566-3.024
			C168.676,106.829,167.971,104.463,167.829,102.028z"/>
	</g>
	<g>
		<path fill="#262626" d="M149.623,139.773c2.868,3.478,6.253,6.402,10.044,8.383c3.789,1.973,8.007,2.858,12.188,2.458
			c2.095-0.144,4.172-0.638,6.207-1.291c2.065-0.589,4.007-1.57,5.989-2.484c3.896-1.995,7.585-4.493,11.31-7.066
			c-2.879,3.49-6.264,6.602-10.145,9.097c-3.891,2.429-8.321,4.367-13.111,4.732c-2.377,0.168-4.801,0.016-7.124-0.569
			c-2.312-0.61-4.533-1.555-6.493-2.866c-1.98-1.278-3.726-2.855-5.222-4.61C151.789,143.79,150.496,141.872,149.623,139.773z"/>
	</g>
	<g>
		<path fill="#F9F9F9" d="M170.936,132.217c0.726,1.09,1.089,2.338,1.357,3.574c0.249,1.245,0.341,2.509,0.323,3.766
			c-0.014,1.259-0.171,2.509-0.429,3.738c-0.275,1.227-0.651,2.434-1.251,3.583c-0.227-1.281-0.27-2.511-0.314-3.732
			c-0.038-1.22-0.021-2.424-0.005-3.624C170.667,137.109,170.762,134.765,170.936,132.217z"/>
	</g>
	<g>
		<polygon opacity="0.7" fill="#558190" points="156.618,177.027 153.587,185.511 168.717,185.511 		"/>
		<polygon opacity="0.7" fill="#558190" points="149.561,196.785 145.41,208.41 169.605,207.713 		"/>
		<polygon opacity="0.7" fill="#558190" points="142.27,217.199 154.063,224.587 138.881,226.69 		"/>
		<polygon opacity="0.7" fill="#558190" points="136.936,232.136 133.613,241.438 144.738,240.129 		"/>
	</g>
	<path fill="#698F9C" d="M152.076,226.086c-6.768,8.376,0,43.073,0,43.073h6.596c0,0,7.615-35.458,0-43.073
		C157.507,224.921,153.113,224.804,152.076,226.086z"/>
	<path fill="#698F9C" d="M166.119,226.086c-6.768,8.376,0,43.073,0,43.073h6.596c0,0,7.615-35.458,0-43.073
		C171.549,224.921,167.155,224.804,166.119,226.086z"/>
	<path fill="#698F9C" d="M132.202,250.896c2.232-2.622,14.27-15.83,13.167-1.719c-0.406,5.187-6.216,12.878-13.321,15.987
		c0,0,12.07-3.997,13.363,3.996l-5.083,1.43l-22.045-1.43C118.282,269.159,128.721,254.984,132.202,250.896z"/>
	<polygon opacity="0.7" fill="#558190" points="133.193,186.843 126.486,194.508 135.756,193.799 	"/>
	<path opacity="0.7" fill="#558190" d="M121.647,207.713l7.364,7.363c0,0,1.753-0.733,2.336-1.112
		c0.63-0.408,2.517-2.033,2.517-2.033L121.647,207.713z"/>
	<path opacity="0.7" fill="#558190" d="M103.13,176.542c-1.852,1.632,2.975,9.413,2.975,9.413l5.268-10.845
		C111.373,175.109,104.757,175.105,103.13,176.542z"/>
	<polygon opacity="0.7" fill="#558190" points="90.678,188.142 88.077,193.757 95.809,195.786 	"/>
	<polygon opacity="0.7" fill="#558190" points="85.691,201.53 84.545,207.713 91.524,208.41 	"/>
	<polygon opacity="0.7" fill="#558190" points="83.781,216.553 83.742,222.864 89.194,220.07 	"/>
	<polygon opacity="0.7" fill="#558190" points="84.984,238.034 84.348,231.248 88.034,234.281 	"/>
	<path opacity="0.7" fill="#558190" d="M96.31,253.005c0,0-5.6,3.636-4.096,4.168c1.158,0.41,7.681,1.373,7.681,1.373L96.31,253.005
		z"/>
	<g>
		<path fill="#698F9C" d="M119.612,176.175c-4.15-0.859-8.445-1.01-12.539-0.209c-4.076,0.805-7.945,2.619-10.791,5.578
			c-0.353,0.367-0.731,0.731-1.063,1.098c-0.312,0.384-0.633,0.777-0.919,1.206c-0.608,0.824-1.135,1.721-1.679,2.598
			c-1.017,1.809-1.928,3.682-2.71,5.613c-1.632,3.839-2.678,7.913-3.541,12.001c-1.621,8.223-1.946,16.68-1.589,25.098l0.437,6.316
			c0.182,2.103,0.5,4.194,0.738,6.297l0.365,3.156l0.539,3.13c0.368,2.086,0.712,4.18,1.041,6.282
			c-2.175-8.198-4.038-16.55-4.676-25.078c-0.681-8.507-0.443-17.143,1.187-25.592c0.924-4.193,2.007-8.382,3.76-12.34
			c0.855-1.983,1.844-3.91,2.949-5.776c0.595-0.911,1.158-1.838,1.84-2.701c0.321-0.442,0.685-0.861,1.059-1.285
			c0.394-0.406,0.795-0.764,1.192-1.147c1.564-1.537,3.467-2.733,5.444-3.651c1.995-0.916,4.129-1.435,6.262-1.763
			c2.147-0.281,4.308-0.268,6.438-0.082C115.481,175.119,117.593,175.506,119.612,176.175z"/>
	</g>
	<g>
		<path fill="#F8EFEC" d="M151.904,270.721c0,0,0.189-4.362,4.741-3.794c0,0,3.33-1.758,4.511,1.871v1.923
			C161.156,270.721,153.991,273.187,151.904,270.721z"/>
		<g>
			<path fill="#424242" d="M158.353,267.876c0.536,0.426,0.779,0.939,0.953,1.472c0.144,0.542,0.217,1.104-0.006,1.754
				c-0.538-0.426-0.781-0.939-0.953-1.472C158.205,269.087,158.133,268.525,158.353,267.876z"/>
		</g>
		<g>
			<path fill="#424242" d="M155.696,268.445c0.394,0.506,0.483,1.012,0.5,1.517c-0.015,0.506-0.103,1.012-0.5,1.517
				c-0.396-0.506-0.485-1.012-0.5-1.517C155.213,269.457,155.302,268.951,155.696,268.445z"/>
		</g>
	</g>
	<g>
		<path fill="#F8EFEC" d="M138.216,270.769c0,0-0.143-4.84,4.937-4.58c0,0,3.542-2.214,5.141,1.705l0.155,2.126
			C148.449,270.02,140.722,273.328,138.216,270.769z"/>
		<g>
			<path fill="#424242" d="M145.119,267.1c0.587,0.443,0.888,0.993,1.122,1.569c0.205,0.587,0.34,1.199,0.187,1.92
				c-0.589-0.442-0.891-0.993-1.122-1.569C145.103,268.433,144.968,267.82,145.119,267.1z"/>
		</g>
		<g>
			<path fill="#424242" d="M142.226,267.944c0.434,0.531,0.564,1.083,0.622,1.642c0.027,0.561-0.021,1.126-0.375,1.715
				c-0.437-0.53-0.566-1.083-0.622-1.642C141.827,269.099,141.874,268.533,142.226,267.944z"/>
		</g>
	</g>
	<g>
		<path fill="#F8EFEC" d="M173.892,270.801c0,0-0.177-4.042-4.395-3.515c0,0-3.086-1.629-4.18,1.734v1.781
			C165.318,270.801,171.959,273.086,173.892,270.801z"/>
		<g>
			<path fill="#424242" d="M167.916,268.165c0.232,0.609,0.17,1.132,0.04,1.635c-0.16,0.494-0.392,0.967-0.919,1.353
				c-0.234-0.61-0.173-1.133-0.04-1.635C167.16,269.025,167.391,268.552,167.916,268.165z"/>
		</g>
		<g>
			<path fill="#424242" d="M170.377,268.692c0.394,0.469,0.483,0.937,0.5,1.406c-0.015,0.469-0.103,0.937-0.5,1.406
				c-0.396-0.469-0.485-0.937-0.5-1.406C169.894,269.63,169.982,269.161,170.377,268.692z"/>
		</g>
	</g>
</g>
</svg>
